<mxfile host="app.diagrams.net" modified="2023-03-30T21:09:00.138Z" agent="Mozilla/5.0 (Windows NT 10.0; Win64; x64) AppleWebKit/537.36 (KHTML, like Gecko) Chrome/111.0.0.0 Safari/537.36" version="21.1.1" etag="wrLmo5pC4ZZ7q_bblncG" type="github">
  <diagram name="Page-1" id="oqaOCMBdQEjhbp6Qp_x1">
    <mxGraphModel>
      <root>
        <mxCell id="0" />
        <mxCell id="1" parent="0" />
      </root>
    </mxGraphModel>
  </diagram>
</mxfile>
